# File exported by Houdini 20.0.506 (www.sidefx.com)
# 56 points
# 324 vertices
# 108 primitives
# Bounds: [-1.5, 0, -1.07682145] to [1.5, 0.0454107933, 1.07682145]
g 
v -1.49374998 0.0100000007 -1.07045424
v 1.49374998 0.0100000007 -1.07045424
v 1.5 0.0100000007 1.05329573
v -1.5 0.0100000007 1.05329573
v -1.5 0.0353937671 1.05318487
v 1.5 0.0353937671 1.05318487
v 1.49374998 0.0168607049 -1.07048428
v -1.30457079 0.0168607049 -1.07048428
v -1.31965971 0.0251352862 -0.122315168
v -1.49116123 0.0268500708 0.0741788149
v 1.5 0.0137385111 1.06229353
v -1.5 0.0137385111 1.06229353
v 1.5 0.0227525271 1.06599271
v -1.5 0.0227525271 1.06599271
v -1.5 0.0317339189 1.06221497
v 1.5 0.0317339189 1.06221497
v -1.31082082 0.0247309078 -0.168652296
v -1.34617615 0.0254757665 -0.0833002329
v -1.46464467 0.0265095904 0.0351637602
v -1.5 0.0272544511 0.120515883
v -1.5 0.0100000007 -1.05170429
v -1.47500002 0.0100000007 -1.07670438
v 1.47500002 0.0100000007 -1.07670438
v 1.5 0.0100000007 -1.05170429
v 1.5 0.0170243271 -1.05173504
v 1.47500002 0.0168061629 -1.07673419
v -1.28582084 0.0168061629 -1.07673419
v -1.31082082 0.0170243271 -1.05173504
v -1.5 9.31322575e-10 -1.05170429
v -1.5 0 1.05529046
v 1.5 0 1.05529046
v 1.5 9.31322575e-10 -1.05170429
v 1.49374998 9.31322575e-10 -1.07045424
v 1.47500002 9.31322575e-10 -1.07670438
v -1.47500002 9.31322575e-10 -1.07670438
v -1.49374998 9.31322575e-10 -1.07045424
v -1.5 0.0454107933 1.05509233
v -1.5 0.037254069 0.120428622
v -1.49116123 0.0368496925 0.0740915537
v -1.46464467 0.0365092121 0.035076499
v -1.34617615 0.0354753844 -0.0833874941
v -1.31965971 0.0351349041 -0.12240243
v -1.31082082 0.0347305275 -0.168739557
v -1.31082082 0.0270239487 -1.0518223
v -1.30457079 0.0268603265 -1.07057154
v -1.28582084 0.0268057846 -1.07682145
v 1.47500002 0.0268057846 -1.07682145
v 1.49374998 0.0268603265 -1.07057154
v 1.5 0.0270239487 -1.0518223
v 1.5 0.0454107933 1.05509233
v -1.5 0.00609810138 1.06996727
v 1.5 0.00609810138 1.06996727
v -1.5 0.0227997787 1.07682145
v 1.5 0.0227997787 1.07682145
v 1.5 0.0394410044 1.06982183
v -1.5 0.0394410044 1.06982183
vt 0.0249999762 0 0
vt 0 0.0250000954 0
vt 1.5 0.00625014305 0
vt 2.78582096 4.30000019 0
vt 2.81082082 3.39188385 0
vt 2.81082082 4.2750001 0
vt 0 2.13000011 0
vt 3 2.1400001 0
vt 0 2.1400001 0
vt 3 2.1500001 0
vt 0 2.1500001 0
vt 3 2.17000008 0
vt 0 2.16000009 0
vt 3 2.16000009 0
vt 0.0249999762 4.30000019 0
vt 0 2.17000008 0
vt 0 4.2750001 0
vt 0 -10.537344 0
vt 0.0177172497 -15.1533394 0
vt 0.0177172497 -10.6040907 0
vt 0 -10.5163059 0
vt 0.0177172497 -10.5697746 0
vt 0.0177172497 -10.5307951 0
vt 0 -10.4952688 0
vt 0.0177172497 -10.4918165 0
vt 0 -10.4742308 0
vt 0.0177172497 -10.4575005 0
vt 0 -10.4531937 0
vt 0.0177172497 -8.43937492 0
vt 0 -8.43937492 0
vt 0.0177172497 -8.3375206 0
vt 0 -8.23566532 0
vt 0.0177172497 -8.23566532 0
vt 0.0177172497 -7.87392759 0
vt 0 -7.87392759 0
vt 0.0177172497 -7.77207327 0
vt 0 -7.77207279 0
vt 0.0177172497 -7.67021799 0
vt 0 -5.76346636 0
vt 0.0177172497 -5.76346636 0
vt 0 -5.72079277 0
vt 0.0177172497 -5.72079325 0
vt 0.0177172497 -5.67811966 0
vt 0 0.282816291 0
vt 0.0177172497 0.282816172 0
vt 0.0177172497 0.325489461 0
vt 0 0.32548961 0
vt 0.0177172497 0.368162692 0
vt 0 4.91310453 0
vt 0.0177172497 4.9174118 0
vt 0 4.93414211 0
vt 0.0177172497 4.95172691 0
vt 0 4.95517969 0
vt 0.0177172497 4.99070644 0
vt 0 4.97621727 0
vt 0.0177172497 5.02968597 0
vt 0.0177172497 5.06400108 0
vt 0 4.99725437 0
vt 0.0177172497 9.61324978 0
vt 0 9.58486938 0
vt 0.0177172497 9.65592384 0
vt 0 9.6275425 0
vt 0.0177172497 9.69859695 0
vt 0 15.9969387 0
vt 0.0177172497 16.0679932 0
vt 0 16.0396118 0
vt 0.0177172497 16.1106663 0
vt 0 16.0822849 0
vt 0.0177172497 16.1533394 0
vt 0 9.54219627 0
vt 0 0.368162811 0
vt 0 -5.67811966 0
vt 0 -7.67021799 0
vt 0 -8.3375206 0
vt 0 -15.0822859 0
vt 3 2.13000011 0
vt 2.84617615 3.30652857 0
vt 3 3.10270476 0
vt 2.96464467 3.18806005 0
vt 1.5 3.14904356 0
vt 1.5 3.34554505 0
vt 1.5 4.29374981 0
vt 2.9749999 0 0
vt 3 0.0250000954 0
vn -0 1 -0
vn -0 1 -0
vn -0 1 -0
vn -0 -0.999961913 0.00872651767
vn 1.52868594e-07 -0.999961972 0.00872657355
vn 9.75488632e-08 -0.999961853 0.00872657262
vn -0 0.980678678 -0.195625201
vn -0 0.705562413 -0.708647728
vn -0 0.705562413 -0.708647728
vn -0 0.705562413 -0.708647728
vn 0 -0.0043634004 -0.999990463
vn 0 -0.0043634004 -0.999990463
vn -0 -0.982348502 -0.187059775
vn 0 -0.711719632 -0.702463567
vn 0 -0.711719632 -0.702463567
vn 0 -0.711719632 -0.702463567
vn 0 -0.0043634004 -0.999990463
vn 0 -0.0043634004 -0.999990463
vn 1.32603539e-09 -1 -4.42014647e-10
vn -0 -1 -0
vn -0 -1 -0
vn -0 0.999961913 -0.00872651767
vn -0 0.982348502 0.187059775
vn 9.72428325e-08 0.999961853 -0.00872657076
vn -0 -0.705562294 0.708647788
vn 0 -0.980678678 0.195625231
vn -0 -0.705562294 0.708647788
vn 0 0.00436344137 0.999990463
vn -0 -0.705562294 0.708647788
vn 0 0.00436344137 0.999990463
vn 0 0.711719632 0.702463508
vn -0 0.982348502 0.18705976
vn 0 0.711719632 0.702463508
vn 0 0.00436344137 0.999990463
vn 0 0.711719632 0.702463508
vn 0 0.00436344137 0.999990463
vn -1 0 0
vn -0.987087309 0 -0.160183176
vn -1 -0 -0
vn -1 0 0
vn -1 -0 -0
vn -1 -0 -0
vn -1 0 0
vn -1 -0 -0
vn -1 -0 0
vn -1 -0 -0
vn -1 -0 0
vn -1 -0 0
vn -1 0 -0
vn -1 -0 0
vn -1 -0 0
vn -1 0 -0
vn -1 -0 0
vn -0.995562792 -0.000821125112 -0.0940960795
vn -0.995562792 -0.000821125461 -0.0940961391
vn -0.995562792 -0.000821125112 -0.0940960795
vn -0.923879743 -0.00333933788 -0.382668436
vn -0.770507932 -0.00556229334 -0.637406111
vn -0.923879743 -0.00333933788 -0.382668436
vn -0.770507932 -0.00556229427 -0.637406111
vn -0.770507932 -0.00556229334 -0.637406111
vn -0.770507932 -0.00556229427 -0.637406111
vn -0.770508111 -0.00556229195 -0.637405813
vn -0.770508111 -0.00556229195 -0.637405872
vn -0.770508111 -0.00556229195 -0.637405813
vn -0.923879325 -0.00333934533 -0.3826693
vn -0.923879385 -0.00333934464 -0.382669181
vn -0.923879325 -0.00333934533 -0.3826693
vn -0.995562673 -0.00082113524 -0.0940972641
vn -0.987087309 -0.00139777793 -0.160177127
vn -0.995562673 -0.00082113524 -0.0940972641
vn -0.987087309 -0.00139777712 -0.160177052
vn -0.707108676 -0.00617028074 -0.70707792
vn -0.987087309 -0.00139777712 -0.160177052
vn -0.707108855 -0.00617027981 -0.707077742
vn -0.707108676 -0.00617028074 -0.70707792
vn -0.707108855 -0.00617027981 -0.707077742
vn -0.160186008 -0.00861343835 -0.987049222
vn 0.160185978 -0.00861343741 -0.987049222
vn -0.160186008 -0.00861343835 -0.987049222
vn 0.160186008 -0.00861343835 -0.987049222
vn 0.160185978 -0.00861343741 -0.987049222
vn 0.160186008 -0.00861343835 -0.987049222
vn 0.707108855 -0.00617027981 -0.707077742
vn 0.707108676 -0.00617028074 -0.70707792
vn 0.707108855 -0.00617027981 -0.707077742
vn 0.987087309 -0.00139777712 -0.160177052
vn 1 0 -0
vn 0.987087309 -0.00139777712 -0.160177052
vn 1 -0 0
vn 1 0 -0
vn 1 -0 0
vn 1 -0 0
vn 1 -0 -0
vn 1 -0 0
vn 1 -0 0
vn 1 0 0
vn 1 -0 0
vn 1 -0 -0
vn 1 0 0
vn 1 -0 -0
vn 1 -0 -0
vn 1 0 -0
vn 1 -0 -0
vn 0.987087309 -0 -0.160183176
vn 0.707108796 -0 -0.707104802
vn 0.987087309 -0 -0.160183176
vn 0.707108796 -0 -0.707104802
vn 0.160185993 0 -0.987086833
vn 0.707108796 -0 -0.707104802
vn 0.160185993 -0 -0.987086833
vn -0.160185993 0 -0.987086833
vn 0.160185993 -0 -0.987086833
vn -0.160185993 0 -0.987086833
vn -0.707108796 0 -0.707104802
vn -0.160185993 0 -0.987086833
vn -0.707108796 0 -0.707104802
vn -0.987087309 -0 -0.160183176
vn -0.707108796 0 -0.707104802
vn -0.987087309 0 -0.160183176
vn -0.707108796 0 -0.707104802
vn -0.707108796 0 -0.707104802
vn -0.987087309 -0 -0.160183176
vn -0.160185993 0 -0.987086833
vn -0.160185993 0 -0.987086833
vn -0.707108796 0 -0.707104802
vn 0.160185993 0 -0.987086833
vn 0.160185993 -0 -0.987086833
vn -0.160185993 0 -0.987086833
vn 0.707108796 -0 -0.707104802
vn 0.707108796 -0 -0.707104802
vn 0.160185993 0 -0.987086833
vn 0.987087309 0 -0.160183176
vn 0.987087309 -0 -0.160183176
vn 0.707108796 -0 -0.707104802
vn 1 0 -0
vn 0.987087309 -0 -0.160183176
vn 0.987087309 0 -0.160183176
vn 1 0 0
vn 1 -0 -0
vn 1 0 -0
vn 1 -0 -0
vn 1 -0 0
vn 1 0 0
vn 1 0 -0
vn 1 -0 0
vn 1 -0 -0
vn 1 0 -0
vn 1 -0 0
vn 1 0 -0
vn 0.987087309 -0.00139777793 -0.160177127
vn 0.987087309 -0.00139777712 -0.160177052
vn 1 0 -0
vn 0.707108676 -0.00617028074 -0.70707792
vn 0.987087309 -0.00139777712 -0.160177052
vn 0.987087309 -0.00139777793 -0.160177127
vn 0.160185978 -0.00861343741 -0.987049222
vn 0.707108855 -0.00617027981 -0.707077742
vn 0.707108676 -0.00617028074 -0.70707792
vn -0.160185978 -0.00861343741 -0.987049222
vn -0.160186008 -0.00861343835 -0.987049222
vn 0.160185978 -0.00861343741 -0.987049222
vn -0.707108676 -0.00617028074 -0.70707792
vn -0.160186008 -0.00861343835 -0.987049222
vn -0.160185978 -0.00861343741 -0.987049222
vn -0.987087309 -0.00139777793 -0.160177127
vn -0.987087309 -0.00139777712 -0.160177052
vn -0.707108676 -0.00617028074 -0.70707792
vn -0.995562673 -0.000821134716 -0.0940972045
vn -0.995562673 -0.00082113524 -0.0940972641
vn -0.987087309 -0.00139777793 -0.160177127
vn -0.923879385 -0.00333934464 -0.382669181
vn -0.995562673 -0.00082113524 -0.0940972641
vn -0.995562673 -0.000821134716 -0.0940972045
vn -0.770508111 -0.00556229195 -0.637405872
vn -0.923879325 -0.00333934533 -0.3826693
vn -0.923879385 -0.00333934464 -0.382669181
vn -0.770507932 -0.00556229334 -0.637406111
vn -0.770508111 -0.00556229195 -0.637405813
vn -0.770508111 -0.00556229195 -0.637405872
vn -0.923879623 -0.00333933858 -0.382668525
vn -0.923879743 -0.00333933788 -0.382668436
vn -0.770507932 -0.00556229334 -0.637406111
vn -0.995562792 -0.000821125461 -0.0940961391
vn -0.923879743 -0.00333933788 -0.382668436
vn -0.923879623 -0.00333933858 -0.382668525
vn -1 0 -0
vn -0.995562792 -0.000821125112 -0.0940960795
vn -0.995562792 -0.000821125461 -0.0940961391
vn -1 0 -0
vn -1 -0 0
vn -1 0 -0
vn -1 -0 -0
vn -1 -0 0
vn -1 0 -0
vn -1 0 0
vn -1 -0 0
vn -1 -0 -0
vn -1 0 0
vn -1 -0 -0
vn -1 0 0
vn -0.987087309 -0 -0.160183176
vn -0.987087309 0 -0.160183176
vn -1 0 0
vn 0 0.711719632 0.702463508
vn 0 0.711719632 0.702463508
vn 0 0.00436344137 0.999990463
vn -0 0.982348502 0.187059775
vn -0 0.982348502 0.18705976
vn 0 0.711719632 0.702463508
vn -0 -0.705562294 0.708647788
vn -0 -0.705562294 0.708647788
vn 0 0.00436344137 0.999990463
vn 0 -0.980678678 0.195625231
vn 0 -0.980678678 0.195625231
vn -0 -0.705562294 0.708647788
vn -0 0.982348502 0.18705976
vn -1.22833717e-08 0.999961853 -0.00872659869
vn -3.17050706e-07 0.999961913 -0.00872657448
vn -3.17050706e-07 0.999961913 -0.00872657448
vn 7.12435551e-08 0.999961853 -0.00872651767
vn 9.87811859e-08 0.999961913 -0.00872649625
vn -3.17050706e-07 0.999961913 -0.00872657448
vn -1.22833717e-08 0.999961853 -0.00872659869
vn 7.12435551e-08 0.999961853 -0.00872651767
vn -0 0.982348502 0.18705976
vn 9.46661274e-08 0.999961972 -0.00872652791
vn -1.22833717e-08 0.999961853 -0.00872659869
vn -0 0.982348502 0.18705976
vn -0 0.982348502 0.187059775
vn 9.46661274e-08 0.999961972 -0.00872652791
vn 9.46661274e-08 0.999961972 -0.00872652791
vn -0 0.982348502 0.187059775
vn -1.49140092e-07 0.999961972 -0.00872657262
vn -0 0.999961913 -0.00872651767
vn -8.73122907e-09 0.999961853 -0.00872654375
vn -9.49124086e-08 0.999961853 -0.00872657169
vn -1.49140092e-07 0.999961972 -0.00872657262
vn -0 0.999961913 -0.00872651767
vn -9.49124086e-08 0.999961853 -0.00872657169
vn -1.49140092e-07 0.999961972 -0.00872657262
vn -0 0.999961913 -0.00872651767
vn -0 0.999961913 -0.00872651767
vn -1.49140092e-07 0.999961972 -0.00872657262
vn -0 0.982348502 0.187059775
vn -0 0.999961913 -0.00872651767
vn -0 0.999961913 -0.00872651767
vn 9.72428325e-08 0.999961853 -0.00872657076
vn 8.73122907e-09 0.999961853 -0.00872654375
vn -0 -1 -0
vn 0 -0.980678678 0.195625231
vn 0 -0.980678678 0.195625231
vn -1.32603539e-09 -1 -4.42014647e-10
vn -0 -1 -0
vn 0 -0.980678678 0.195625231
vn -1.32603539e-09 -1 -4.42014647e-10
vn -0 -1 -0
vn -0 -1 -0
vn 0 -0.980678678 0.195625231
vn -0 -1 -0
vn 1.32603539e-09 -1 -4.42014647e-10
vn 0 -0.980678678 0.195625231
vn -0 -1 -0
vn -0 -1 -0
vn 0 -0.711719632 -0.702463567
vn 0 -0.0043634004 -0.999990463
vn 0 -0.711719632 -0.702463567
vn -0 -0.982348502 -0.187059775
vn 0 -0.711719632 -0.702463567
vn -0 -0.982348502 -0.187059775
vn -0 0.705562413 -0.708647728
vn 0 -0.0043634004 -0.999990463
vn -0 0.705562413 -0.708647728
vn 0 0.980678678 -0.195625201
vn -0 0.705562413 -0.708647728
vn -0 0.980678678 -0.195625201
vn -0 -0.982348502 -0.187059775
vn -9.46661274e-08 -0.999961972 0.00872652791
vn -0 -0.982348502 -0.187059775
vn 9.88489575e-08 -0.999961913 0.00872657262
vn 3.68501176e-08 -0.999961853 0.00872661639
vn -0 -0.982348502 -0.187059775
vn 9.88489575e-08 -0.999961913 0.00872657262
vn -1.85214706e-08 -0.999961913 0.00872655213
vn -4.66768206e-08 -0.999961853 0.0087265335
vn 9.88489575e-08 -0.999961913 0.00872657262
vn -4.66768206e-08 -0.999961853 0.0087265335
vn 3.68501176e-08 -0.999961853 0.00872661639
vn -0 -0.982348502 -0.187059775
vn 3.68501176e-08 -0.999961853 0.00872661639
vn -9.46661274e-08 -0.999961972 0.00872652791
vn -0 -0.982348502 -0.187059775
vn -9.46661274e-08 -0.999961972 0.00872652791
vn 1.52868594e-07 -0.999961972 0.00872657355
vn -0 -0.982348502 -0.187059775
vn 1.52868594e-07 -0.999961972 0.00872657355
vn -0 -0.999961913 0.00872651767
vn 9.75488632e-08 -0.999961853 0.00872657262
vn 8.73122907e-09 -0.999961853 0.00872654375
vn -0 -0.999961913 0.00872651767
vn 1.52868594e-07 -0.999961972 0.00872657355
vn -0 -0.999961913 0.00872651767
vn -0 -0.999961913 0.00872651767
vn -0 -0.982348502 -0.187059775
vn -0 -0.999961913 0.00872651767
vn -1.01759305e-07 -0.999961853 0.00872657262
vn -0 -0.999961913 0.00872651767
vn -8.73122907e-09 -0.999961853 0.00872654375
vn -1.01759305e-07 -0.999961853 0.00872657262
vn -0 1 -0
vn -0 1 -0
vn -0 1 -0
vn -0 1 -0
vn 0 0.980678678 -0.195625201
vn -0 1 -0
vn -0 1 -0
vn 0 0.980678678 -0.195625201
vn -0 0.980678678 -0.195625201
vn -0 1 -0
vn -0 0.980678678 -0.195625201
vn -0 1 -0
vn -0 1 -0
vn -0 0.980678678 -0.195625201
vn -0 1 -0
g file
usemtl /obj/geo1/quickmaterial1/matnet/principledshader
f 23/1/1 24/2/2 2/3/3
f 27/4/4 17/5/5 28/6/6
f 3/7/7 12/8/8 11/9/9
f 11/9/10 14/10/11 13/11/12
f 5/12/13 16/13/14 15/14/15
f 15/14/16 13/11/17 14/10/18
f 32/2/19 34/1/20 33/3/21
f 47/15/22 50/16/23 49/17/24
f 51/8/25 31/7/26 52/9/27
f 53/10/28 52/9/29 54/11/30
f 55/13/31 37/12/32 56/14/33
f 54/11/34 56/14/35 53/10/36
f 4/18/37 29/19/38 30/20/39
f 12/21/40 30/20/41 51/22/42
f 12/21/43 51/22/44 53/23/45
f 14/24/46 53/23/47 56/25/48
f 15/26/49 56/25/50 37/27/51
f 5/28/52 37/27/53 38/29/54
f 20/30/55 38/29/56 39/31/57
f 19/32/58 39/31/59 40/33/60
f 19/32/61 40/33/62 41/34/63
f 18/35/64 41/34/65 42/36/66
f 9/37/67 42/36/68 43/38/69
f 28/39/70 43/38/71 44/40/72
f 8/41/73 44/40/74 45/42/75
f 8/41/76 45/42/77 46/43/78
f 26/44/79 46/43/80 47/45/81
f 26/44/82 47/45/83 48/46/84
f 7/47/85 48/46/86 49/48/87
f 6/49/88 49/48/89 50/50/90
f 16/51/91 50/50/92 55/52/93
f 13/53/94 55/52/95 54/54/96
f 11/55/97 54/54/98 52/56/99
f 11/55/100 52/56/101 31/57/102
f 3/58/103 31/57/104 32/59/105
f 2/60/106 32/59/107 33/61/108
f 23/62/109 33/61/110 34/63/111
f 22/64/112 34/63/113 35/65/114
f 1/66/115 35/65/116 36/67/117
f 21/68/118 36/67/119 29/69/120
f 1/66/121 36/67/122 21/68/123
f 22/64/124 35/65/125 1/66/126
f 23/62/127 34/63/128 22/64/129
f 2/60/130 33/61/131 23/62/132
f 24/70/133 32/59/134 2/60/135
f 3/58/136 32/59/137 24/70/138
f 11/55/139 31/57/140 3/58/141
f 13/53/142 54/54/143 11/55/144
f 16/51/145 55/52/146 13/53/147
f 6/49/148 50/50/149 16/51/150
f 25/71/151 49/48/152 6/49/153
f 7/47/154 49/48/155 25/71/156
f 26/44/157 48/46/158 7/47/159
f 27/72/160 46/43/161 26/44/162
f 8/41/163 46/43/164 27/72/165
f 28/39/166 44/40/167 8/41/168
f 17/73/169 43/38/170 28/39/171
f 9/37/172 43/38/173 17/73/174
f 18/35/175 42/36/176 9/37/177
f 19/32/178 41/34/179 18/35/180
f 10/74/181 39/31/182 19/32/183
f 20/30/184 39/31/185 10/74/186
f 5/28/187 38/29/188 20/30/189
f 15/26/190 37/27/191 5/28/192
f 14/24/193 56/25/194 15/26/195
f 12/21/196 53/23/197 14/24/198
f 4/18/199 30/20/200 12/21/201
f 21/75/202 29/19/203 4/18/204
f 55/13/205 56/14/206 54/11/207
f 50/16/208 37/12/209 55/13/210
f 51/8/211 52/9/212 53/10/213
f 30/76/214 31/7/215 51/8/216
f 37/12/217 41/77/218 38/78/219
f 38/78/220 40/79/221 39/80/222
f 38/78/223 41/77/224 40/79/225
f 37/12/226 42/81/227 41/77/228
f 37/12/229 50/16/230 42/81/231
f 42/81/232 50/16/233 43/5/234
f 46/4/235 45/82/236 44/6/237
f 43/5/238 46/4/239 44/6/240
f 43/5/241 47/15/242 46/4/243
f 43/5/244 50/16/245 47/15/246
f 47/15/247 49/17/248 48/82/249
f 35/83/250 31/7/251 30/76/252
f 29/84/253 35/83/254 30/76/255
f 29/84/256 36/3/257 35/83/258
f 31/7/259 34/1/260 32/2/261
f 31/7/262 35/83/263 34/1/264
f 16/13/265 13/11/266 15/14/267
f 6/16/268 16/13/269 5/12/270
f 12/8/271 14/10/272 11/9/273
f 4/76/274 12/8/275 3/7/276
f 5/12/277 9/81/278 6/16/279
f 20/78/280 18/77/281 5/12/282
f 20/78/283 10/80/284 19/79/285
f 20/78/286 19/79/287 18/77/288
f 5/12/289 18/77/290 9/81/291
f 6/16/292 9/81/293 17/5/294
f 6/16/295 17/5/296 26/15/297
f 28/6/298 8/82/299 27/4/300
f 17/5/301 27/4/302 26/15/303
f 6/16/304 26/15/305 25/17/306
f 26/15/307 7/82/308 25/17/309
f 21/84/310 22/83/311 1/3/312
f 21/84/313 4/76/314 22/83/315
f 22/83/316 4/76/317 3/7/318
f 22/83/319 3/7/320 23/1/321
f 23/1/322 3/7/323 24/2/324
