<?xml version="1.0" encoding="UTF-8" standalone="no"?>
<!DOCTYPE svg PUBLIC "-//W3C//DTD SVG 1.1//EN" "http://www.w3.org/Graphics/SVG/1.1/DTD/svg11.dtd">
<svg width="100%" height="100%" viewBox="0 0 591 591" version="1.1" xmlns="http://www.w3.org/2000/svg" xmlns:xlink="http://www.w3.org/1999/xlink" xml:space="preserve" xmlns:serif="http://www.serif.com/" style="fill-rule:evenodd;clip-rule:evenodd;stroke-linejoin:round;stroke-miterlimit:2;">
    <g id="background" transform="matrix(1.41154,0,0,1.41154,-149.212,-63.7232)">
        <path d="M524.081,129.105C524.081,82.766 486.46,45.144 440.12,45.144L189.67,45.144C143.33,45.144 105.709,82.766 105.709,129.105L105.709,379.556C105.709,425.895 143.33,463.517 189.67,463.517L440.12,463.517C486.46,463.517 524.081,425.895 524.081,379.556L524.081,129.105Z" style="fill:rgb(26,33,59);"/>
    </g>
    <g id="axis">
        <g id="z" transform="matrix(-1,-5.55112e-17,5.55112e-17,-1,590.551,736.998)">
            <path d="M295.276,281.637L422.832,207.993C425.655,206.363 430.592,209.623 433.852,215.269C437.111,220.914 437.466,226.82 434.643,228.45L307.087,302.095L307.087,449.384C307.087,452.643 301.794,455.29 295.276,455.29C288.757,455.29 283.465,452.643 283.465,449.384L283.465,302.095L155.908,228.45C153.086,226.82 153.44,220.914 156.699,215.269C159.959,209.623 164.897,206.363 167.719,207.993L295.276,281.637Z" style="fill:rgb(0,0,255);"/>
        </g>
        <g id="y" transform="matrix(0.5,-0.866025,0.866025,0.5,-234.905,330.131)">
            <path d="M295.276,281.637L422.832,207.993C425.655,206.363 430.592,209.623 433.852,215.269C437.111,220.914 437.466,226.82 434.643,228.45L307.087,302.095L307.087,449.384C307.087,452.643 301.794,455.29 295.276,455.29C288.757,455.29 283.465,452.643 283.465,449.384L283.465,302.095L155.908,228.45C153.086,226.82 153.44,220.914 156.699,215.269C159.959,209.623 164.897,206.363 167.719,207.993L295.276,281.637Z" style="fill:rgb(0,255,0);"/>
        </g>
        <g id="x" transform="matrix(0.5,0.866025,-0.866025,0.5,530.181,-181.302)">
            <path d="M295.276,281.637L422.832,207.993C425.655,206.363 430.592,209.623 433.852,215.269C437.111,220.914 437.466,226.82 434.643,228.45L307.087,302.095L307.087,449.384C307.087,452.643 301.794,455.29 295.276,455.29C288.757,455.29 283.465,452.643 283.465,449.384L283.465,302.095L155.908,228.45C153.086,226.82 153.44,220.914 156.699,215.269C159.959,209.623 164.897,206.363 167.719,207.993L295.276,281.637Z" style="fill:rgb(255,0,0);"/>
        </g>
        <path id="yz" d="M295.4,281.709L307.087,288.456L307.087,301.951L307.025,302.059C303.766,307.705 298.828,310.965 296.005,309.335L283.465,302.095L283.465,287.614C283.465,284.355 288.757,281.708 295.276,281.708L295.4,281.709Z" style="fill:rgb(0,255,255);"/>
        <path id="xz" d="M295.151,281.709L295.276,281.708C301.794,281.708 307.087,284.355 307.087,287.614L307.087,302.095L294.546,309.335C291.723,310.965 286.785,307.705 283.526,302.059L283.465,301.951L283.465,288.456L295.151,281.709Z" style="fill:rgb(255,0,255);"/>
        <path id="xy" d="M295.276,281.637L307.816,288.878C310.639,290.507 310.284,296.414 307.025,302.059L306.962,302.166L295.276,308.914L283.589,302.166L283.526,302.059C280.267,296.414 279.912,290.507 282.735,288.878L295.276,281.637Z" style="fill:rgb(255,255,0);"/>
        <path id="xyz" d="M295.4,281.709L307.087,288.456L307.087,301.951L307.025,302.059L306.962,302.166L295.276,308.914L283.589,302.166L283.526,302.059L283.465,301.951L283.465,288.456L295.151,281.709L295.276,281.708L295.4,281.709Z" style="fill:white;"/>
    </g>
    <g id="stars">
        <g id="star" transform="matrix(0.107258,0,0,0.215232,88.1202,23.529)">
            <path d="M295.276,178.353C295.276,242.884 347.667,295.276 412.198,295.276C347.919,295.276 295.684,347.259 295.278,411.443L295.276,412.198C295.276,347.667 242.884,295.276 178.353,295.276C242.884,295.276 295.276,242.884 295.276,178.353Z" style="fill:rgb(180,150,0);"/>
        </g>
        <g id="star1" serif:id="star" transform="matrix(0.205072,0,0,0.411514,210.745,8.06209)">
            <path d="M295.276,178.353C295.276,242.884 347.667,295.276 412.198,295.276C347.919,295.276 295.684,347.259 295.278,411.443L295.276,412.198C295.276,347.667 242.884,295.276 178.353,295.276C242.884,295.276 295.276,242.884 295.276,178.353Z" style="fill:rgb(180,150,0);"/>
        </g>
        <g id="star2" serif:id="star" transform="matrix(0.173286,0,0,0.347731,329.931,-53.3963)">
            <path d="M295.276,178.353C295.276,242.884 347.667,295.276 412.198,295.276C347.919,295.276 295.684,347.259 295.278,411.443L295.276,412.198C295.276,347.667 242.884,295.276 178.353,295.276C242.884,295.276 295.276,242.884 295.276,178.353Z" style="fill:rgb(255,225,75);"/>
        </g>
        <g id="star3" serif:id="star" transform="matrix(0.107258,0,0,0.215232,510.691,169.198)">
            <path d="M295.276,178.353C295.276,242.884 347.667,295.276 412.198,295.276C347.919,295.276 295.684,347.259 295.278,411.443L295.276,412.198C295.276,347.667 242.884,295.276 178.353,295.276C242.884,295.276 295.276,242.884 295.276,178.353Z" style="fill:rgb(255,225,75);"/>
        </g>
        <g id="star4" serif:id="star" transform="matrix(0.198225,0,0,0.397775,38.0826,328.861)">
            <path d="M295.276,178.353C295.276,242.884 347.667,295.276 412.198,295.276C347.919,295.276 295.684,347.259 295.278,411.443L295.276,412.198C295.276,347.667 242.884,295.276 178.353,295.276C242.884,295.276 295.276,242.884 295.276,178.353Z" style="fill:rgb(255,213,0);"/>
        </g>
        <g id="star5" serif:id="star" transform="matrix(0.152015,0,0,0.305045,481.087,250.754)">
            <path d="M295.276,178.353C295.276,242.884 347.667,295.276 412.198,295.276C347.919,295.276 295.684,347.259 295.278,411.443L295.276,412.198C295.276,347.667 242.884,295.276 178.353,295.276C242.884,295.276 295.276,242.884 295.276,178.353Z" style="fill:rgb(255,213,0);"/>
        </g>
        <g id="star6" serif:id="star" transform="matrix(0.198225,0,0,0.397775,409.472,410.176)">
            <path d="M295.276,178.353C295.276,242.884 347.667,295.276 412.198,295.276C347.919,295.276 295.684,347.259 295.278,411.443L295.276,412.198C295.276,347.667 242.884,295.276 178.353,295.276C242.884,295.276 295.276,242.884 295.276,178.353Z" style="fill:rgb(255,225,75);"/>
        </g>
        <g id="star7" serif:id="star" transform="matrix(0.173286,0,0,0.347731,309.59,213.614)">
            <path d="M295.276,178.353C295.276,242.884 347.667,295.276 412.198,295.276C347.919,295.276 295.684,347.259 295.278,411.443L295.276,412.198C295.276,347.667 242.884,295.276 178.353,295.276C242.884,295.276 295.276,242.884 295.276,178.353Z" style="fill:rgb(180,150,0);"/>
        </g>
        <g id="star8" serif:id="star" transform="matrix(0.131309,0,0,0.263495,135.949,207.678)">
            <path d="M295.276,178.353C295.276,242.884 347.667,295.276 412.198,295.276C347.919,295.276 295.684,347.259 295.278,411.443L295.276,412.198C295.276,347.667 242.884,295.276 178.353,295.276C242.884,295.276 295.276,242.884 295.276,178.353Z" style="fill:rgb(255,225,75);"/>
        </g>
    </g>
</svg>
