# File exported by Houdini 20.0.506 (www.sidefx.com)
# 66 points
# 232 vertices
# 52 primitives
# Bounds: [-0.25, -0.25, -0.25] to [3, 3, 3]
g 
v -0.0625 -0.216506362 -0.108253166
v -0.108253166 -0.216506362 -0.0625
v -0.124999993 -0.216506362 -1.88744735e-08
v -0.125000015 0 -0.216506347
v -0.108253188 -0.125 -0.1875
v -9.4637933e-09 -0.125 -0.216506347
v -0.1875 -0.125 -0.108253188
v -0.216506347 0 -0.125000015
v 0 -0.25 -1.09278391e-08
v 1.74276593e-07 -0.216506362 -0.124999948
v 0 0 -0.25
v -0.22863315 -0.0797421336 7.91314125e-09
v -0.249999985 0 2.18556924e-08
v 0 -0.182210475 -0.159295872
v -0.216506332 -0.125000015 5.65123315e-15
v -0.151884869 -0.189621478 0
v 0.124999993 3 -0.216506362
v 0.216506347 3 -0.125
v 0.25 3 0
v 0.216506392 3 0.12499994
v 0.124999978 3 0.216506362
v 2.98122016e-09 3 0.25
v -0.124999978 3 0.216506362
v -0.216506317 3 0.125000045
v -0.25 3 2.18556941e-08
v -0.216506347 3 -0.125000015
v -0.125000015 3 -0.216506347
v -1.09278471e-08 3 -0.25
v 0.124999993 0.124999963 -0.216506362
v 0.216506347 0.216506347 -0.125
v 0.25 0.25 0
v 0.124999993 0.216506362 0.216506347
v 0.216506392 0.216506347 0.12499994
v 0.170753181 0.170753166 0.170753151
v 3 -0.124999993 -0.216506362
v 3 -0.216506347 -0.125
v 3 -0.25 0
v 3 -0.216506392 0.12499994
v 3 -0.124999978 0.216506362
v 3 -2.98122016e-09 0.25
v 3 0.124999978 0.216506362
v 3 0.216506317 0.125000045
v 3 0.25 2.18556941e-08
v 3 0.216506347 -0.125000015
v 3 0.125000015 -0.216506347
v 3 1.09278471e-08 -0.25
v 0 -0.124999993 -0.216506362
v -0.216506317 0.125000045 0.125000045
v -0.124999978 0.216506362 0.216506362
v 2.48435023e-10 0.25 0.25
v 0.25 -2.48435023e-10 0.25
v 0.216506347 0.124999978 0.216506362
v 0.216506362 -0.124999978 0.216506362
v 0.124999866 -0.216506392 0.12499994
v 0.216506347 0.125 3
v 0.25 0 3
v 0.216506392 -0.12499994 3
v 0.124999978 -0.216506362 3
v 2.98122016e-09 -0.25 3
v -0.124999978 -0.216506362 3
v -0.216506317 -0.125000045 3
v -0.25 -2.18556941e-08 3
v -0.216506347 0.125000015 3
v -0.125000015 0.216506347 3
v -1.09278471e-08 0.25 3
v 0.124999993 0.216506362 3
vn -3.04365884e-08 -0.847434521 -0.530899882
vn -2.0399785e-08 -1 -8.28741253e-09
vn -0.265449941 -0.84743458 -0.459772766
vn -0.265449941 -0.84743458 -0.459772766
vn -2.0399785e-08 -1 -8.28741253e-09
vn -0.459772676 -0.847434521 -0.265449911
vn -0.459772676 -0.847434521 -0.265449911
vn -2.0399785e-08 -1 -8.28741253e-09
vn -0.530899882 -0.847434521 -7.48232623e-08
vn -6.35812469e-08 0 -1
vn 5.23173593e-09 -0.482341617 -0.875983179
vn -0.437991589 -0.482341647 -0.758623719
vn -0.50000006 0 -0.866025388
vn -0.758623719 -0.482341647 -0.437991589
vn -0.866025388 -5.29843724e-09 -0.5
vn -0.50000006 0 -0.866025388
vn -0.437991589 -0.482341647 -0.758623719
vn -0.866025388 -5.29843724e-09 -0.5
vn -0.758623719 -0.482341647 -0.437991589
vn -0.875983179 -0.482341647 -5.23173647e-08
vn -1 0 -1.27162494e-07
vn 5.23173593e-09 -0.482341617 -0.875983179
vn -3.04365884e-08 -0.847434521 -0.530899882
vn -0.265449941 -0.84743458 -0.459772766
vn -0.437991589 -0.482341647 -0.758623719
vn -0.437991589 -0.482341647 -0.758623719
vn -0.265449941 -0.84743458 -0.459772766
vn -0.459772676 -0.847434521 -0.265449911
vn -0.758623719 -0.482341647 -0.437991589
vn -0.758623719 -0.482341647 -0.437991589
vn -0.459772676 -0.847434521 -0.265449911
vn -0.530899882 -0.847434521 -7.48232623e-08
vn -0.875983179 -0.482341647 -5.23173647e-08
vn -0.920884967 -0.307703614 8.79053772e-08
vn -1 -1.07101367e-16 -1.27162494e-07
vn -0.875983119 -0.482341647 2.14052562e-07
vn -3.04365884e-08 -0.847434521 -0.530899882
vn 4.21952464e-08 -0.482341617 -0.875983238
vn 1.25652555e-08 -0.710600495 -0.660234451
vn -0.530899882 -0.847434521 -7.48232623e-08
vn -0.632286549 -0.740169048 2.41174121e-08
vn -0.875983179 -0.482341647 -5.23173647e-08
vn -0 1 -0
vn -0 1 -0
vn -0 1 -0
vn -0 1 -0
vn -0 1 0
vn -0 1 -0
vn -0 1 -0
vn 0 1 -0
vn -0 1 -0
vn -0 1 -0
vn 0 1 -0
vn 0 1 -0
vn 0.5 -0 -0.866025388
vn 0.5 0 -0.866025388
vn -3.92840676e-08 0 -1
vn -3.92840676e-08 0 -1
vn -3.92840676e-08 0 -1
vn -8.00673661e-08 0 -1
vn -0.5 0 -0.866025388
vn -0.5 0 -0.866025388
vn -0.5 0 -0.866025388
vn -0.5 0 -0.866025388
vn -0.866025388 0 -0.5
vn -0.866025388 0 -0.5
vn -0.866025388 0 -0.5
vn -0.866025388 0 -0.5
vn -1 0 9.82101795e-08
vn -1 -0 9.82101795e-08
vn 0.866025388 0 -0.5
vn 0.866025388 0 -0.5
vn 1 0 -9.82101653e-08
vn 1 0 -9.82101653e-08
vn 0.5 -0 -0.866025388
vn 0.5 -0 -0.866025388
vn 0.866025388 -0 -0.5
vn 0.866025329 -0 -0.50000006
vn 0.50000006 0 0.866025329
vn 0.683012724 0 0.683012724
vn 0.866025448 0 0.499999911
vn 0.866025448 0 0.499999911
vn 0.5 0 0.866025448
vn 1 0 -9.82101653e-08
vn 1 0 -9.82101653e-08
vn 0.866025448 0 0.499999911
vn 0.866025448 0 0.499999911
vn 1 -0 -0
vn 1 0 -0
vn 1 -0 -0
vn 1 -0 -0
vn 1 -0 0
vn 1 -0 -0
vn 1 -0 -0
vn 1 -0 -0
vn 1 -0 -0
vn 1 -0 -0
vn 1 -0 -0
vn 1 -0 -0
vn 0 -0.866025388 -0.5
vn 0 -0.866025388 -0.5
vn 0 -0.728841901 -0.637183487
vn 0 -0.5 -0.866025388
vn 0 -0.5 -0.866025388
vn 0 -0.5 -0.866025388
vn 0 -0.5 -0.866025388
vn 0 3.92840676e-08 -1
vn -0 3.92840676e-08 -1
vn -0 0.5 -0.866025388
vn -0 0.5 -0.866025388
vn -0 3.92840676e-08 -1
vn -0 8.00673305e-08 -1
vn -0 0.5 -0.866025388
vn -0 0.5 -0.866025388
vn -0 0.866025388 -0.5
vn -0 0.866025388 -0.5
vn -0 1 9.82101795e-08
vn -0 0.866025388 -0.5
vn -0 0.866025388 -0.49999994
vn -0 1 9.82101795e-08
vn 0 0.866025209 0.500000119
vn 0 0.866025269 0.500000119
vn 0 1 9.82101795e-08
vn 0 1 9.82101795e-08
vn -0.99999994 -0 1.79776691e-07
vn -0.866025269 -0 0.500000119
vn -0.866025269 -0 0.500000119
vn -1 -0 9.82101795e-08
vn -0.866025269 -0 0.500000119
vn -0.499999911 -0 0.866025448
vn -0.499999911 -0 0.866025448
vn -0.866025269 -0 0.500000119
vn -2.94642444e-15 -0 1
vn 0 -0 1
vn -0.499999911 -0 0.866025448
vn -0.499999911 -0 0.866025448
vn 1.01989528e-08 0 1
vn 0.5 0 0.866025448
vn 0.5 0 0.866025448
vn 0 0 1
vn 0 0.499999911 0.866025448
vn 0 0.499999911 0.866025448
vn 0 2.94642444e-15 1
vn 0 0 1
vn 0 -0.5 0.866025448
vn 0 0 1
vn 0 0 1
vn 0 -0.5 0.866025448
vn -0 -0.866025448 0.499999911
vn -0 -0.5 0.866025448
vn -0 -0.5 0.866025448
vn -0 -0.866025448 0.499999911
vn 0 -1 -9.82101653e-08
vn 0 -0.866025448 0.499999911
vn 0 -0.866025448 0.499999911
vn 0 -1 -9.82101653e-08
vn 0 0.866025209 0.500000119
vn 0 0.683012605 0.683012724
vn 0 0.499999911 0.866025448
vn 0 0.499999911 0.866025448
vn 0 0.866025269 0.500000119
vn -0 -0 1
vn -0 -0 1
vn -0 -0 1
vn -0 -0 1
vn -0 -0 1
vn -0 -0 1
vn -0 -0 1
vn -0 -0 1
vn 0 -0 1
vn -0 -0 1
vn -0 -0 1
vn -0 0 1
vn -0.866025388 0.5 -0
vn -0.866025388 0.5 0
vn -1 -9.82101795e-08 0
vn -1 -9.82101795e-08 0
vn -1 -9.82101795e-08 0
vn -1 -9.82101795e-08 0
vn -0.914532602 -0.318968534 0
vn -0.866025269 -0.500000119 0
vn -0.866025269 -0.500000119 0
vn -0.499999911 -0.866025448 0
vn -0.499999911 -0.866025448 0
vn 0 -1 0
vn 0 -1 -0
vn 0.866025388 0.5 0
vn 1 9.82101653e-08 0
vn 1 9.82101653e-08 0
vn 0.866025388 0.5 0
vn 0.5 0.866025388 0
vn 0.866025388 0.5 0
vn 0.866025388 0.5 0
vn 0.683012784 0.683012605 0
vn 0.5 0.866025388 0
vn 0.5 0.866025388 0
vn 0.49999994 0.866025388 0
vn -3.92840676e-08 1 0
vn -3.92840676e-08 1 0
vn -3.92840676e-08 1 0
vn -0.5 0.866025388 0
vn -0.5 0.866025388 0
vn -3.92840676e-08 1 0
vn -0.5 0.866025388 -0
vn -0.866025388 0.5 -0
vn -0.866025388 0.5 -0
vn -0.5 0.866025388 -0
vn 0 -1 -0
vn 0 -1 -0
vn 0.5 -0.866025448 -0
vn 0.5 -0.866025448 -0
vn 0.5 -0.866025448 -0
vn 0.5 -0.866025448 -0
vn 0.866025448 -0.499999911 -0
vn 0.866025448 -0.499999911 -0
vn 1 9.82101653e-08 -0
vn 0.866025448 -0.499999911 -0
vn 0.866025448 -0.499999911 -0
vn 1 9.82101653e-08 -0
vn 0 -1 -9.82101653e-08
vn 0 -0.99999994 -2.65317283e-07
vn 0 -0.866025388 -0.5
vn 0 -0.866025388 -0.5
vn -1 0 0
vn -1 0 0
vn -1 0 0
vn -1 0 0
vn -0.499999911 -0.866025448 0
vn -0.866025269 -0.500000119 0
vn -0.866025269 -0.500000119 0
vn -0.607539475 -0.758485913 0
vn -0.499999911 -0.866025448 0
g 
f 10//1 9//2 1//3
f 1//4 9//5 2//6
f 2//7 9//8 3//9
f 11//10 6//11 5//12 4//13
f 7//14 8//15 4//16 5//17
f 8//18 7//19 15//20 13//21
f 6//22 10//23 1//24 5//25
f 5//26 1//27 2//28 7//29
f 7//30 2//31 3//32 15//33
f 12//34 13//35 15//36
f 10//37 6//38 14//39
f 3//40 16//41 15//42
f 17//43 28//44 27//45 26//46 25//47 24//48 23//49 22//50 21//51 20//52 19//53 18//54
f 17//55 29//56 11//57 28//58
f 28//59 11//60 4//61 27//62
f 27//63 4//64 8//65 26//66
f 26//67 8//68 13//69 25//70
f 30//71 18//72 19//73 31//74
f 29//75 17//76 18//77 30//78
f 32//79 34//80 33//81 20//82 21//83
f 31//84 19//85 20//86 33//87
f 35//88 46//89 45//90 44//91 43//92 42//93 41//94 40//95 39//96 38//97 37//98 36//99
f 36//100 10//101 14//102 47//103 35//104
f 35//105 47//106 11//107 46//108
f 29//109 45//110 46//111 11//112
f 45//113 29//114 30//115 44//116
f 43//117 44//118 30//119 31//120
f 33//121 42//122 43//123 31//124
f 13//125 48//126 24//127 25//128
f 48//129 49//130 23//131 24//132
f 50//133 22//134 23//135 49//136
f 50//137 32//138 21//139 22//140
f 41//141 52//142 51//143 40//144
f 39//145 40//146 51//147 53//148
f 38//149 39//150 53//151 54//152
f 37//153 38//154 54//155 9//156
f 33//157 34//158 52//159 41//160 42//161
f 55//162 66//163 65//164 64//165 63//166 62//167 61//168 60//169 59//170 58//171 57//172 56//173
f 63//174 48//175 13//176 62//177
f 62//178 13//179 12//180 15//181 61//182
f 60//183 3//184 9//185 59//186
f 55//187 56//188 51//189 52//190
f 66//191 55//192 52//193 34//194 32//195
f 66//196 32//197 50//198 65//199
f 50//200 49//201 64//202 65//203
f 49//204 48//205 63//206 64//207
f 59//208 9//209 54//210 58//211
f 58//212 54//213 53//214 57//215
f 56//216 57//217 53//218 51//219
f 37//220 9//221 10//222 36//223
f 6//224 11//225 47//226 14//227
f 60//228 61//229 15//230 16//231 3//232
